<?xml version="1.0" encoding="utf-8"?>
<!-- Generator: Adobe Illustrator 18.1.1, SVG Export Plug-In . SVG Version: 6.00 Build 0)  -->
<svg version="1.1" id="Layer_1" xmlns="http://www.w3.org/2000/svg" xmlns:xlink="http://www.w3.org/1999/xlink" x="0px" y="0px"
	 viewBox="0 0 300 55" enable-background="new 0 0 300 55" xml:space="preserve">
<g>
	<path fill="#FDBA13" d="M27.9,0h244.3c15.2,0,27.5,12.3,27.5,27.5S287.4,55,272.1,55H27.9C12.6,55,0.3,42.8,0.3,27.5S12.6,0,27.9,0
		z"/>
	<g>
		<path fill="#DA1F26" d="M56.3,38.3c-1.4,1.1-3.9,2.7-8.2,2.7c-1.6,0-5.9-0.2-9.1-3.6c-3.4-3.6-3.6-8.4-3.6-10c0-1.4,0.2-5,2.5-8.2
			c1.4-1.8,4.3-5.2,10.2-5.2c4.8,0,7.7,2.3,9.1,3.6c2.5,2.5,3.9,6.8,3.9,10.2C61.1,31.5,59.5,35.6,56.3,38.3z M53.1,21.5
			c-0.2-0.5-1.1-1.4-2.5-1.8c-1.1-0.5-2-0.5-2.5-0.5c-1.4,0-2.5,0.5-3,0.7c-2.5,1.4-3.4,4.5-3.4,7.3c0,3.4,1.1,5.5,2,6.6
			c1.1,1.1,2.7,1.8,4.3,1.8c0.9,0,2.7-0.2,4.5-1.8c1.4-1.6,2-3.6,2-5.7C54.7,24.7,53.8,22.6,53.1,21.5z"/>
		<path fill="#DA1F26" d="M80.6,40.1L75.4,31h-4.1v9.1h-6.4V14.4h11.6c0.7,0,1.4,0,2.3,0c1.1,0,5.2,0.2,7.3,4.1
			c0.5,0.7,0.9,2.3,0.9,4.3c0,3-1.1,4.3-2,5.2c-0.5,0.5-0.9,0.7-1.1,0.9c-0.5,0.2-0.9,0.5-2,0.9l5.9,10.2
			C87.7,40.1,80.6,40.1,80.6,40.1z M77,19.2h-5.5v7.1h5.2c0.2,0,0.9,0,1.8-0.2c2-0.7,2-2.7,2-3.4C80.6,19.2,78.1,19.2,77,19.2z"/>
		<path fill="#DA1F26" d="M110.9,36.5c-0.9,0.9-2.7,2.7-5.9,3.4c-1.4,0.2-2.7,0.5-4.1,0.5h-10V14.4h8.2c0.9,0,1.6,0,2.3,0
			c1.1,0,5.5,0.2,8.4,2.7c0.5,0.5,1.1,1.1,2,2.3c0.9,1.4,1.8,3.6,1.8,7.5C113.8,32,112.2,34.9,110.9,36.5z M106.1,21.9
			c-0.5-0.5-1.1-1.4-2.5-1.8c-1.1-0.5-2.3-0.5-3.6-0.5h-2.5v15h2c1.8,0,4.1,0,5.7-1.4c1.4-0.9,2.3-2.7,2.3-6.4
			C107.5,25.4,107.2,23.5,106.1,21.9z"/>
		<path fill="#DA1F26" d="M117.5,40.1V14.4h18.9v5h-12.5v4.8h11.8V29h-11.8v6.1h13.9v5C137.7,40.1,117.5,40.1,117.5,40.1z"/>
		<path fill="#DA1F26" d="M156.6,40.1l-5.2-9.1h-4.1v9.1h-6.4V14.4h11.6c0.7,0,1.4,0,2.3,0c1.1,0,5.2,0.2,7.3,4.1
			c0.5,0.7,0.9,2.3,0.9,4.3c0,3-1.1,4.3-2,5.2c-0.5,0.5-0.9,0.7-1.1,0.9c-0.5,0.2-0.9,0.5-2,0.9l5.9,10.2
			C163.6,40.1,156.6,40.1,156.6,40.1z M152.7,19.2h-5.5v7.1h5.2c0.2,0,0.9,0,1.8-0.2c2-0.7,2-2.7,2-3.4
			C156.6,19.2,153.9,19.2,152.7,19.2z"/>
		<path fill="#DA1F26" d="M192.5,40.1l-9.3-15.9l0.2,15.9h-6.1V14.4h6.4l9.3,16.1l-0.2-16.1h6.1v25.7
			C198.9,40.1,192.5,40.1,192.5,40.1z"/>
		<path fill="#DA1F26" d="M223.7,38.3c-1.4,1.1-3.9,2.7-8.2,2.7c-1.6,0-5.9-0.2-9.1-3.6c-3.4-3.6-3.6-8.4-3.6-10
			c0-1.4,0.2-5,2.5-8.2c1.4-1.8,4.3-5.2,10.2-5.2c4.8,0,7.7,2.3,9.1,3.6c2.5,2.5,3.9,6.8,3.9,10.2C228.7,31.5,226.9,35.6,223.7,38.3
			z M220.5,21.5c-0.2-0.5-1.1-1.4-2.5-1.8c-1.1-0.5-2-0.5-2.5-0.5c-1.4,0-2.5,0.5-3,0.7c-2.5,1.4-3.4,4.5-3.4,7.3
			c0,3.4,1.1,5.5,2,6.6c1.1,1.1,2.7,1.8,4.3,1.8c0.9,0,2.7-0.2,4.5-1.8c1.4-1.6,2-3.6,2-5.7C222.3,24.7,221.4,22.6,220.5,21.5z"/>
		<path fill="#DA1F26" d="M259.2,40.1h-6.6L248,23.8l-4.5,16.4h-6.6l-6.6-25.7h6.4l3.9,17.7l4.5-17.7h5.7l4.8,17.7l3.6-17.7h6.4
			L259.2,40.1z"/>
	</g>
</g>
</svg>
