<?xml version="1.0" encoding="utf-8"?>
<!-- Generator: Adobe Illustrator 18.1.1, SVG Export Plug-In . SVG Version: 6.00 Build 0)  -->
<svg version="1.1" id="Layer_1" xmlns="http://www.w3.org/2000/svg" xmlns:xlink="http://www.w3.org/1999/xlink" x="0px" y="0px"
	 viewBox="0 0 412.5 320.9" enable-background="new 0 0 412.5 320.9" xml:space="preserve">
<path fill="#FFFFFF" d="M300.6,188.1c1.5,0.2,2.6-0.2,3-1.2c0.6-1.2,1.4-2,2.4-2.8c1.2-0.9,1.1-1.6-0.4-2.1c-1.2-0.4-2.4-0.9-3.6-1
	c-6.7-0.6-13.4-1.4-20.1-1.7c-7.9-0.3-15.8-0.6-23.7-0.4c-8.7,0.3-17.4,0.1-26.1,0.8c-7.1,0.6-14.2,1.1-21.2,1.9
	c-6.3,0.8-12.6,1.4-19,2.2c-7,0.9-13.9,2.1-20.9,2.7c-6.9,0.6-13.6,2-20.4,3c-5.4,0.8-10.8,1.9-16.2,2.9
	c-11.6,2.1-23.2,3.9-34.9,5.8c-2.4,0.4-3.8,1.8-4.4,4.7c-0.4,1.6,1,4.3,2.5,5.4c2,1.4,4.6,2.2,6.1,4.3c1.2,1.7,2.7,1.9,4.5,1.6
	c0.9-0.2,1.8-0.2,2.7-0.5c6-1.5,12-3,18-4.5c5.8-1.5,11.7-2.4,17.3-4.5c2.7-1,5.5-1.9,8.3-2.4c5.9-1.1,11.9-1.8,17.8-3.1
	c6.3-1.3,12.6-2.4,18.9-3.6c9-1.7,18.1-3.3,27.2-4.3c6-0.7,12-1.4,18-1.9c6.1-0.5,12.2-1.5,18.3-1.6c9.2-0.1,18.3,0.4,27.5-0.3
	c4.1-0.3,8.1,0.4,12.1,1.1c2,0.3,4,1.2,5.7-0.6C300.2,188,300.6,188.1,300.6,188.1z"/>
<path fill="#FFFFFF" d="M14.5,257.9c0.4,1,0.7,1.6,0.9,2.2c3.8,10.6,7.6,21.1,11.3,31.7c0.4,1.2,0.9,1.6,2.2,1.5
	c1.9-0.1,3.9-0.1,5.8,0c1.1,0.1,1.6-0.3,2-1.3c2.4-6.9,4.8-13.8,7.2-20.7c1.5-4.3,3-8.6,4.6-12.9c0.1,0,0.2,0,0.4,0
	c0,0.6,0,1.2,0,1.8c0,10.5,0,20.9,0,31.4c0,1.2,0.3,1.7,1.6,1.6c2.6-0.1,5.2-0.1,7.9,0c1,0,1.4-0.1,1.4-1.3c0-16.1,0-32.1,0-48.2
	c0-1.1-0.4-1.3-1.4-1.3c-4.5,0-9,0-13.5,0c-1,0-1.3,0.3-1.6,1.2c-1.8,5.8-3.8,11.5-5.7,17.3c-1.8,5.3-3.5,10.7-5.3,16.3
	c-0.3-0.6-0.4-0.9-0.5-1.2c-3.7-10.7-7.5-21.5-11.2-32.2c-0.3-0.7-0.4-1.3-1.4-1.3c-4.7,0.1-9.3,0-14,0c-0.8,0-1,0.2-1,1.1
	c0,16.2,0,32.3,0,48.5c0,0.9,0.3,1.1,1.1,1.1c2.6-0.1,5.1-0.1,7.7,0c1.5,0.1,1.9-0.3,1.9-1.8C14.5,280.5,14.5,269.5,14.5,257.9z"/>
<path fill="#FFFFFF" d="M387.9,256.7c-3.2,0-6.2,0.1-9.2,0c-1.2,0-1.7,0.3-2,1.4c-2.3,7.2-4.6,14.4-7,21.6c-0.2,0.5-0.1,1.3-0.8,1.6
	c-0.1-0.2-0.1-0.3-0.2-0.5c-2.5-7.6-5.1-15.1-7.7-22.7c-0.2-0.6-0.1-1.5-1.1-1.5c-3.4,0-6.9,0-10.5,0c1.3,3.4,2.5,6.6,3.7,9.7
	c3.1,8.2,6.3,16.5,9.4,24.7c1.5,4-0.8,7-5.1,6.7c-1.1-0.1-2.3-0.1-3.4-0.2c-0.8-0.1-1.1,0.1-1.1,0.9c0.1,2.1,0.1,4.2,0,6.3
	c0,0.9,0.4,1,1.1,1.1c1.9,0.3,3.7,0.2,5.6,0.2c7,0,10.3-2.3,12.8-8.8c3.4-9,6.8-18,10.2-27C384.4,265.9,386.1,261.4,387.9,256.7z"/>
<path fill="#FFFFFF" d="M60.1,56.1c3.4-1.1,6.6-1.7,9.8-2.3c8.6-1.6,17.2-3.6,25.7-5.6c3.7-0.9,7.6-1.3,11.1-3
	c0.6-0.3,1.5-0.3,1.6-1.3c0.1-1.3,1.1-1.7,2.1-2.2c2.6-1.2,4.6-3.1,5.7-5.8c0.8-1.9-0.8-4.4-2.6-4c-1.4,0.3-2.8,0.1-3.9,0.5
	c-2.8,1.2-5.9,1.1-8.8,1.8c-10.9,2.3-21.7,5-32.3,8.4c-2.9,0.9-5.9,1.6-8.8,2.8c-3.4,1.4-7,2.2-10.5,3.3c-4.1,1.2-8.1,2.5-12.2,3.8
	c-0.5,0.2-1.8,0.1-1.1,1.1c0.5,0.6,0.2,0.6-0.1,0.9c-1,0.8-2.1,1.6-3.5,2.7c3.1,0,5.7,0.1,8.2-0.1c1.5-0.1,2.9-0.8,4.4-1.2
	c4.8-1.3,9.6-2.3,14.5-2.5c1,0,2.1,0,2.8,1C61.6,55,60.6,54.8,60.1,56.1z"/>
<path fill="#FFFFFF" d="M98.8,269.7c1.4,0,2.7,0,4.1,0c0.8,0,1.1-0.2,1-1.1c-0.6-3.9-2.4-7.1-5.6-9.4c-6.3-4.6-17-4.8-23.4-0.2
	c-5,3.5-7.1,8.7-7.6,14.6c-0.7,8.5,3.1,16.9,12.3,19.9c3.8,1.2,7.7,1.2,11.6,0.5c6.7-1.3,11.5-6.4,12.8-13c0.2-1.2,0-1.7-1.4-1.6
	c-2.1,0.1-4.2,0.1-6.3,0c-1.5-0.1-2.2,0.2-2.6,1.9c-0.7,2.9-2.7,4.8-5.7,5.4c-3.1,0.6-5.8-0.1-7.8-2.6c-3.6-4.3-3.4-13.9,0.3-18.1
	c3.4-3.9,10.6-3.4,12.4,1.2c1,2.5,2.3,2.9,4.4,2.6C97.8,269.6,98.3,269.7,98.8,269.7z"/>
<path fill="#FFFFFF" d="M275.6,256.7c-2.7,0-5.1,0-7.5,0c-2.8,0-2.8,0-3.6,2.6c-2.3,7.3-4.6,14.7-7,22.3c-0.2-0.6-0.4-1-0.5-1.4
	c-2.4-7.4-4.7-14.9-7-22.3c-0.3-0.9-0.6-1.3-1.6-1.2c-2.7,0.1-5.5,0.1-8.2,0c-1.1,0-1.5,0.1-1,1.4c4,11.4,8,22.7,11.9,34.1
	c0.3,0.9,0.7,1.2,1.7,1.2c3-0.1,5.9-0.1,8.9,0c1.1,0,1.5-0.4,1.9-1.4c2.7-8,5.5-16,8.2-23.9C273,264.3,274.3,260.6,275.6,256.7z"/>
<path fill="#FFFFFF" d="M205.1,268c0,8,0,15.9,0,23.9c0,1.2,0.3,1.6,1.5,1.5c2.6-0.1,5.1-0.1,7.7,0c1,0,1.3-0.2,1.3-1.3
	c0-16,0-32.1,0-48.1c0-0.9-0.2-1.3-1.2-1.3c-2.6,0.1-5.1,0.1-7.7,0c-1.3-0.1-1.6,0.3-1.6,1.6C205.2,252.1,205.1,260.1,205.1,268z"/>
<path fill="#FFFFFF" d="M331.1,263.5c0-2.3,0-4,0-5.7c0-0.7-0.1-1.1-1-1.1c-2.6,0.1-5.2,0-7.8,0c-0.8,0-1.1,0.2-1.1,1.1
	c0,11.5,0,23,0,34.5c0,0.9,0.3,1.2,1.2,1.2c2.6,0,5.2-0.1,7.8,0c1.2,0,1.5-0.3,1.5-1.5c0-5.6-0.1-11.1,0-16.7
	c0.1-5.2,2.8-8.8,7.3-9.8c1.8-0.4,3.6-0.3,5.4-0.1c0.8,0.1,0.9-0.1,0.9-0.8c0-1.8,0-3.6,0-5.5c0-3.5-0.4-3.8-3.9-3.3
	c-0.2,0-0.3,0.1-0.5,0.1C336.7,256.7,333.4,259.1,331.1,263.5z"/>
<path fill="#FFFFFF" d="M27.2,80.5c1.6,0.4,2.9-0.2,4.2-0.6c3-0.9,5.9-1.5,9-0.7c0.5,0.1,1,0,1.5-0.1c4.7-1,9.5-1.9,14.2-2.9
	c7.7-1.7,15.4-3.3,23-5.2c2.4-0.6,4.7-1.2,7.1-1.5c0.6-0.1,1.2-0.2,1.7,0.1c1.7,1.1,3.2,0.6,4.8-0.2c1.6-0.8,3.3-1,5-0.7
	c2.5,0.4,4-0.3,5.4-2.4c0.6-0.9-0.8-4.4-1.7-4.3c-1.7,0.3-3.4-0.6-5.1,0.1c-1.2,0.5-2.5,0.6-3.8,0.7c-2,0.2-4,0.2-5.9,0.6
	c-5.4,1.1-10.7,2.9-16.1,4.2C56.9,71,43.2,73,30.2,77.7c-0.2,0.1-0.3,0.1-0.3,0.4c0.2,0.1,0.5,0.3,0.8,0.5
	C29.6,79.3,28.2,79.3,27.2,80.5z"/>
<path fill="#FFFFFF" d="M223.8,275c0,5.7,0,11.4,0,17.1c0,1,0.2,1.4,1.3,1.3c2.6-0.1,5.2-0.1,7.9,0c1,0,1.2-0.3,1.2-1.2
	c0-11.4,0-22.9,0-34.3c0-0.9-0.2-1.2-1.1-1.1c-2.6,0.1-5.2,0.1-7.9,0c-1.1,0-1.4,0.3-1.4,1.4C223.9,263.7,223.8,269.3,223.8,275z"/>
<path fill="#FFFFFF" d="M47.5,99.5c1.1,0.1,1.7,0,2.4-0.1c1.6-0.2,3-0.8,4.7-0.9c3.8-0.3,7.7-0.9,11.5-1.2c3.1-0.2,6.1-1.2,9.2-1.6
	c2.7-0.3,5.4-0.3,8.1-0.9c0.9-0.2,1.9,0,2.9,0.2c1.5,0.3,2.7,0,3.7-1.1c0.5-0.5,1.5-0.8,0.9-1.9c-0.6-1-0.8-2.1-2.6-2.1
	c-2.8-0.1-5.3,0.8-8.1,0.9c-1.3,0-2.7,0-4,0.4c-2.9,0.9-5.9,1.7-8.9,2.2c-5.7,1-11.3,2.1-16.7,4.4C49.6,98.2,48.6,98.6,47.5,99.5z"
	/>
<path fill="#FFFFFF" d="M229,242.7c-1.4,0-2.7,0-4.1,0c-0.8,0-1.1,0.3-1,1.1c0,2.1,0,4.2,0,6.3c0,0.8,0.2,1.1,1.1,1.1
	c2.7,0,5.5,0,8.2,0c0.7,0,1.2-0.1,1.1-1c0-2.2,0-4.3,0-6.5c0-0.7-0.2-1-1-1C231.8,242.7,230.4,242.7,229,242.7z"/>
<path fill="#FFFFFF" d="M394.9,256.9c-0.7,0-1.5,0-2.2,0c-0.5,0-1.2-0.2-1.2,0.7c0,0.8,0.4,1,1,0.9c1.2-0.2,1.3,0.5,1.3,1.4
	c-0.1,1.3,0,2.6,0,3.9c0,0.8,0.2,1.1,1.1,1.1c0.9,0,1.2-0.2,1.2-1.1c-0.1-1.2,0-2.4,0-3.6c0-1-0.1-2,1.4-1.7
	c0.6,0.1,0.9-0.2,0.9-0.9c0-0.8-0.5-0.8-1-0.8C396.5,257,395.7,256.9,394.9,256.9z"/>
<path fill="#FDCE35" d="M239.2,6.3C250.1,9,255.9,17.3,261,26.2c6.4,11.1,10.4,23.1,13.6,35.4c3.5,13.3,5.9,26.8,7.6,40.4
	c2.2,17.1,3,34.2,3.3,51.4c0,1.4-0.3,1.8-1.8,1.8c-6.1-0.1-12.3-0.1-18.4,0c-1.3,0-1.6-0.3-1.6-1.6c0-12.2-0.3-24.4-1-36.5
	c-0.7-12.2-1.7-24.4-3.3-36.5c-1.7-13.4-3.9-26.7-7.6-39.7c-1.5-5.3-3.3-10.5-5.8-15.4c-1.4-2.6-2.9-5-5.2-6.9
	c-2.6-2.1-5.3-2.2-8-0.3c-2.3,1.6-3.8,3.7-5.2,6c-3.7,6.4-5.9,13.5-7.8,20.6c-2.9,11-4.8,22.3-6.2,33.6c-2.8,21.4-3.8,42.9-3.9,64.5
	c0,1.3-0.4,1.5-1.6,1.5c-6.2,0-12.4-0.1-18.6,0c-1.2,0-1.6-0.2-1.7-1.6c-0.1-7.7-0.1-15.4-0.5-23c-0.4-9.5-1-19-2-28.4
	c-1.1-10.9-2.5-21.8-4.5-32.5c-2-10.5-4.4-20.8-8.9-30.6c-1.3-3-2.9-5.8-5.1-8.2c-4-4.3-8.2-4.3-12,0.3c-3.4,4.1-5.4,8.9-7.1,13.8
	c-3.8,11.1-6.1,22.5-7.9,34.1c-1.8,11.2-3.1,22.5-4,33.8c-1.4,17-2,34.1-2,51.2c0,1.5-0.4,1.9-1.9,1.9c-6.1-0.1-12.3-0.1-18.4,0
	c-1.2,0-1.6-0.2-1.6-1.5c0.2-11.7,0.6-23.4,1.6-35.1c1-12.5,2.6-24.9,4.9-37.1c3.5-18.3,8.1-36.3,16.8-52.9
	c2.9-5.6,6.4-10.9,10.9-15.3c3.4-3.3,7.3-5.6,11.9-6.8c1.9,0,3.9,0,5.8,0c0.4,0.6,1,0.4,1.5,0.5c6.4,1.8,11,6,15,10.9
	c6.4,8,10.6,17.1,14.2,26.6c1.6,4.2,2.9,8.5,4.3,12.9c0.1-0.3,0.2-0.4,0.2-0.5c2.7-9.1,5.8-18.1,10.3-26.5
	c5.6-10.5,11.9-20.5,24.5-23.9C235.6,6.3,237.4,6.3,239.2,6.3z"/>
<path fill="#FFFFFF" d="M408.6,265.2c-2.1,0-2.2-1.4-2-3c0.1-0.6,0-1.1,0-2c-1,1.3-1.1,2.7-1.7,3.9c-0.2,0.5-0.4,0.8-1,0.9
	c-0.7,0-0.9-0.3-1.1-0.9c-0.5-1.3-1-2.6-1.7-3.9c0,1.1,0,2.3,0,3.4c0,0.7,0.2,1.3-0.9,1.3c-1,0-1.1-0.4-1.1-1.2c0-1.9,0-3.7,0-5.6
	c0-0.4-0.3-1.2,0.5-1.2c0.9,0.1,2-0.6,2.5,0.6c0.6,1.3,1.1,2.7,1.7,4.3c0.2-0.5,0.4-0.8,0.5-1.1c0.6-2.1,1.2-4.3,4.2-4.1
	C408.6,259.5,408.6,262.4,408.6,265.2z"/>
<path fill="#FFFFFF" d="M300.6,188.1c0,0-0.4-0.1-0.5,0.1c-1.8,1.8-3.8,0.9-5.7,0.6c-4-0.7-8-1.4-12.1-1.1
	c-9.1,0.7-18.3,0.1-27.5,0.3c-6.2,0.1-12.2,1-18.3,1.6c-6,0.5-12,1.3-18,1.9c-9.1,1-18.2,2.6-27.2,4.3c-6.3,1.2-12.6,2.3-18.9,3.6
	c-5.9,1.2-11.9,1.9-17.8,3.1c-2.8,0.5-5.6,1.4-8.3,2.4c-5.6,2.1-11.5,3-17.3,4.5c-6,1.5-12,3-18,4.5c-0.9,0.2-1.8,0.3-2.7,0.5
	c-1.8,0.3-3.3,0.1-4.5-1.6c-1.5-2.1-4-2.9-6.1-4.3c-1.5-1-2.8-3.8-2.5-5.4c0.6-2.9,2-4.3,4.4-4.7c11.6-1.9,23.3-3.7,34.9-5.8
	c5.4-1,10.8-2.1,16.2-2.9c6.8-1,13.6-2.4,20.4-3c7-0.6,13.9-1.8,20.9-2.7c6.3-0.8,12.6-1.4,19-2.2c7.1-0.9,14.1-1.4,21.2-1.9
	c8.7-0.7,17.4-0.6,26.1-0.8c7.9-0.2,15.8,0,23.7,0.4c6.7,0.3,13.4,1,20.1,1.7c1.2,0.1,2.4,0.6,3.6,1c1.4,0.5,1.5,1.2,0.4,2.1
	c-1,0.8-1.8,1.6-2.4,2.8C303.1,187.8,302.1,188.3,300.6,188.1z"/>
<path fill="#FFFFFF" d="M14.5,257.9c0,11.5,0,22.6,0,33.6c0,1.5-0.4,1.9-1.9,1.8c-2.6-0.1-5.1-0.1-7.7,0c-0.9,0-1.2-0.2-1.1-1.1
	c0-16.2,0-32.3,0-48.5c0-0.8,0.2-1.1,1-1.1c4.7,0,9.3,0.1,14,0c1,0,1.2,0.5,1.4,1.3c3.7,10.8,7.5,21.5,11.2,32.2
	c0.1,0.3,0.3,0.6,0.5,1.2c1.8-5.6,3.6-11,5.3-16.3c1.9-5.8,3.8-11.5,5.7-17.3c0.3-0.9,0.7-1.2,1.6-1.2c4.5,0,9,0,13.5,0
	c1,0,1.4,0.1,1.4,1.3c0,16.1,0,32.1,0,48.2c0,1.1-0.4,1.3-1.4,1.3c-2.6-0.1-5.2-0.1-7.9,0c-1.3,0.1-1.6-0.4-1.6-1.6
	c0-10.5,0-20.9,0-31.4c0-0.6,0-1.2,0-1.8c-0.1,0-0.2,0-0.4,0c-1.5,4.3-3,8.6-4.6,12.9c-2.4,6.9-4.9,13.8-7.2,20.7
	c-0.4,1-0.9,1.4-2,1.3c-1.9-0.1-3.9-0.1-5.8,0c-1.2,0.1-1.7-0.3-2.2-1.5c-3.7-10.6-7.5-21.1-11.3-31.7
	C15.2,259.6,14.9,259,14.5,257.9z"/>
<path fill="#FFFFFF" d="M314.6,282c-2.2,8-8.6,12.5-17.7,12.4c-12.1-0.1-19.8-8.7-18.8-21.1c1.1-14.6,15.2-20.6,26.2-16.2
	c6.4,2.6,9.5,7.8,10.7,14.3c0.3,1.6,0.3,3.2,0.4,4.8c0.1,1.3-0.4,1.5-1.6,1.5c-7.9,0-15.7,0-23.6,0c-2.1,0-2,0-1.7,2
	c0.6,3.6,2.4,6.1,6.1,6.9c4.6,1,8.3-0.4,10.5-3.7c0.4-0.6,0.7-0.7,1.4-0.7C309.2,282,311.8,282,314.6,282z M296.6,271
	c2.4,0,4.8,0,7.1,0c0.9,0,1.2-0.2,1-1.1c-0.9-4.2-3.5-6.5-7.6-6.6c-4.5-0.1-7.4,2.1-8.5,6.2c-0.4,1.3,0.1,1.5,1.2,1.5
	C292.1,271,294.3,271,296.6,271z"/>
<path fill="#FFFFFF" d="M198.1,282c-1.7,6.8-7.7,11.8-14.7,12.3c-3.7,0.2-7.4,0.1-10.9-1.4c-6.5-2.8-9.9-8-10.8-14.8
	c-0.8-6.5,0.6-12.5,5.5-17.2c5.6-5.3,12.4-6.5,19.6-4.2c7,2.2,10.3,7.6,11.6,14.5c0.3,1.6,0.3,3.3,0.4,4.9c0.1,1.2-0.3,1.5-1.5,1.5
	c-8-0.1-16.1,0-24.1-0.1c-1.2,0-1.5,0.2-1.3,1.5c0.6,3.7,2.2,6.4,6,7.4c4.5,1.1,8.5-0.3,10.8-3.8c0.3-0.5,0.6-0.6,1-0.6
	C192.7,282,195.4,282,198.1,282z M188.4,271c-0.3-4.6-3-7.4-7.4-7.7c-4.7-0.3-8.2,2.4-9,6.8c-0.1,0.6-0.1,0.9,0.7,0.9
	C177.9,271,183.1,271,188.4,271z"/>
<path fill="#FFFFFF" d="M387.9,256.7c-1.8,4.7-3.5,9.2-5.2,13.8c-3.4,9-6.8,18-10.2,27c-2.5,6.5-5.8,8.8-12.8,8.8
	c-1.9,0-3.8,0.1-5.6-0.2c-0.7-0.1-1.1-0.2-1.1-1.1c0.1-2.1,0.1-4.2,0-6.3c0-0.9,0.3-1,1.1-0.9c1.1,0.1,2.3,0.1,3.4,0.2
	c4.3,0.3,6.6-2.7,5.1-6.7c-3.1-8.3-6.3-16.5-9.4-24.7c-1.2-3.2-2.4-6.3-3.7-9.7c3.6,0,7,0,10.5,0c1,0,0.9,0.9,1.1,1.5
	c2.6,7.5,5.1,15.1,7.7,22.7c0.1,0.2,0.1,0.3,0.2,0.5c0.7-0.3,0.6-1,0.8-1.6c2.4-7.2,4.7-14.4,7-21.6c0.4-1.2,0.9-1.5,2-1.4
	C381.7,256.7,384.7,256.7,387.9,256.7z"/>
<path fill="#FFFFFF" d="M60.1,56.1c0.5-1.3,1.5-1.1,2.1-1.6c-0.7-1-1.8-1.1-2.8-1c-4.9,0.2-9.8,1.2-14.5,2.5
	c-1.5,0.4-2.9,1.1-4.4,1.2c-2.5,0.2-5.1,0.1-8.2,0.1c1.4-1.1,2.4-1.9,3.5-2.7c0.3-0.2,0.6-0.3,0.1-0.9c-0.7-1,0.6-1,1.1-1.1
	c4-1.3,8.1-2.6,12.2-3.8c3.5-1.1,7.2-1.8,10.5-3.3c2.9-1.2,5.9-1.9,8.8-2.8c10.6-3.4,21.4-6.1,32.3-8.4c2.9-0.6,5.9-0.6,8.8-1.8
	c1.1-0.5,2.6-0.2,3.9-0.5c1.9-0.5,3.4,2,2.6,4c-1.1,2.7-3.1,4.6-5.7,5.8c-1,0.5-2,0.9-2.1,2.2c-0.1,1-0.9,1-1.6,1.3
	c-3.5,1.6-7.4,2.1-11.1,3c-8.6,2-17.1,4-25.7,5.6C66.7,54.4,63.5,55,60.1,56.1z"/>
<path fill="#FFFFFF" d="M98.8,269.7c-0.5,0-1-0.1-1.5,0c-2.2,0.3-3.5-0.1-4.4-2.6c-1.8-4.6-9-5.1-12.4-1.2
	c-3.7,4.2-3.9,13.7-0.3,18.1c2,2.5,4.7,3.2,7.8,2.6c3.1-0.6,5-2.5,5.7-5.4c0.4-1.7,1.1-2,2.6-1.9c2.1,0.1,4.2,0.1,6.3,0
	c1.4-0.1,1.6,0.4,1.4,1.6c-1.2,6.6-6.1,11.7-12.8,13c-3.9,0.8-7.8,0.8-11.6-0.5c-9.2-2.9-13-11.4-12.3-19.9c0.5-5.9,2.6-11,7.6-14.6
	c6.4-4.5,17.1-4.4,23.4,0.2c3.2,2.3,4.9,5.5,5.6,9.4c0.1,0.9-0.1,1.1-1,1.1C101.5,269.6,100.2,269.7,98.8,269.7z"/>
<path fill="#FFFFFF" d="M275.6,256.7c-1.3,3.9-2.6,7.6-3.9,11.4c-2.7,8-5.5,15.9-8.2,23.9c-0.3,1-0.8,1.4-1.9,1.4
	c-3-0.1-5.9-0.1-8.9,0c-0.9,0-1.4-0.3-1.7-1.2c-3.9-11.4-7.9-22.8-11.9-34.1c-0.4-1.3-0.1-1.4,1-1.4c2.7,0.1,5.5,0.1,8.2,0
	c1,0,1.3,0.3,1.6,1.2c2.3,7.5,4.7,14.9,7,22.3c0.1,0.4,0.3,0.7,0.5,1.4c2.4-7.6,4.7-14.9,7-22.3c0.8-2.6,0.8-2.6,3.6-2.6
	C270.5,256.7,273,256.7,275.6,256.7z"/>
<path fill="#FFFFFF" d="M205.1,268c0-7.9,0-15.8,0-23.7c0-1.3,0.3-1.6,1.6-1.6c2.6,0.1,5.1,0.1,7.7,0c1,0,1.2,0.3,1.2,1.3
	c0,16,0,32.1,0,48.1c0,1.1-0.3,1.3-1.3,1.3c-2.6-0.1-5.1-0.1-7.7,0c-1.2,0-1.5-0.3-1.5-1.5C205.2,283.9,205.1,275.9,205.1,268z"/>
<path fill="#FFFFFF" d="M331.1,263.5c2.3-4.4,5.6-6.7,10-7.6c0.2,0,0.3-0.1,0.5-0.1c3.5-0.5,3.9-0.2,3.9,3.3c0,1.8,0,3.6,0,5.5
	c0,0.7-0.1,0.9-0.9,0.8c-1.8-0.2-3.6-0.3-5.4,0.1c-4.5,1-7.2,4.5-7.3,9.8c-0.1,5.6-0.1,11.1,0,16.7c0,1.2-0.3,1.6-1.5,1.5
	c-2.6-0.1-5.2-0.1-7.8,0c-0.9,0-1.2-0.3-1.2-1.2c0-11.5,0-23,0-34.5c0-0.8,0.2-1.1,1.1-1.1c2.6,0,5.2,0.1,7.8,0c0.9,0,1,0.4,1,1.1
	C331.1,259.5,331.1,261.2,331.1,263.5z"/>
<path fill="#FFFFFF" d="M27.2,80.5c1-1.2,2.5-1.2,3.5-1.9c-0.3-0.2-0.5-0.3-0.8-0.5c-0.1-0.3,0.1-0.3,0.3-0.4
	C43.2,73,56.9,71,70.4,67.9c5.4-1.3,10.7-3.1,16.1-4.2c1.9-0.4,3.9-0.5,5.9-0.6c1.3-0.1,2.6-0.2,3.8-0.7c1.7-0.7,3.4,0.1,5.1-0.1
	c1-0.2,2.3,3.3,1.7,4.3c-1.3,2.2-2.8,2.8-5.4,2.4c-1.7-0.3-3.4-0.1-5,0.7c-1.6,0.8-3.2,1.2-4.8,0.2c-0.5-0.3-1.1-0.2-1.7-0.1
	c-2.4,0.3-4.7,0.9-7.1,1.5c-7.6,1.8-15.3,3.5-23,5.2c-4.7,1-9.4,1.9-14.2,2.9c-0.5,0.1-1,0.2-1.5,0.1c-3.1-0.8-6-0.3-9,0.7
	C30.1,80.3,28.8,80.9,27.2,80.5z"/>
<path fill="#FFFFFF" d="M223.8,275c0-5.6,0-11.3,0-16.9c0-1.1,0.3-1.4,1.4-1.4c2.6,0.1,5.2,0.1,7.9,0c0.9,0,1.1,0.2,1.1,1.1
	c0,11.4,0,22.9,0,34.3c0,1-0.2,1.3-1.2,1.2c-2.6-0.1-5.2-0.1-7.9,0c-1.1,0-1.3-0.3-1.3-1.3C223.9,286.3,223.8,280.6,223.8,275z"/>
<path fill="#FFFFFF" d="M47.5,99.5c1.1-0.9,2.1-1.2,3.1-1.6c5.4-2.3,11-3.4,16.7-4.4c3-0.5,6-1.3,8.9-2.2c1.3-0.4,2.7-0.4,4-0.4
	c2.7-0.1,5.3-0.9,8.1-0.9c1.8,0,2,1.1,2.6,2.1c0.6,1.1-0.4,1.4-0.9,1.9c-1,1.1-2.2,1.4-3.7,1.1c-0.9-0.2-1.9-0.4-2.9-0.2
	c-2.7,0.5-5.4,0.5-8.1,0.9c-3.1,0.4-6,1.4-9.2,1.6c-3.8,0.3-7.7,0.9-11.5,1.2c-1.6,0.1-3.1,0.7-4.7,0.9
	C49.2,99.5,48.5,99.6,47.5,99.5z"/>
<path fill="#FFFFFF" d="M229,242.7c1.4,0,2.8,0,4.3,0c0.7,0,1,0.2,1,1c0,2.2,0,4.3,0,6.5c0,0.9-0.4,1-1.1,1c-2.7,0-5.5,0-8.2,0
	c-0.8,0-1.1-0.3-1.1-1.1c0-2.1,0-4.2,0-6.3c0-0.8,0.2-1.1,1-1.1C226.2,242.7,227.6,242.7,229,242.7z"/>
<path fill="#FDCE35" d="M302.2,149.7c0,3-2.4,5.4-5.4,5.4c-3,0-5.6-2.6-5.6-5.5c0.1-2.9,2.6-5.3,5.6-5.3
	C299.8,144.3,302.2,146.8,302.2,149.7z M301.1,149.7c0-2.6-1.8-4.4-4.4-4.4c-2.5,0-4.3,1.9-4.3,4.5c0,2.5,1.9,4.5,4.4,4.4
	C299.2,154.2,301.1,152.3,301.1,149.7z"/>
<path fill="#FFFFFF" d="M394.9,256.9c0.8,0,1.6,0,2.4,0c0.5,0,1,0,1,0.8c0,0.7-0.3,1-0.9,0.9c-1.5-0.3-1.5,0.7-1.4,1.7
	c0,1.2-0.1,2.4,0,3.6c0.1,0.9-0.3,1.1-1.2,1.1c-0.8,0-1.1-0.2-1.1-1.1c0.1-1.3,0-2.6,0-3.9c0-0.9-0.1-1.6-1.3-1.4
	c-0.7,0.1-1-0.1-1-0.9c0-1,0.6-0.7,1.2-0.7C393.4,256.9,394.1,256.9,394.9,256.9z"/>
<path fill="#FFFFFF" d="M156.6,264.9c-0.6-13.4-9.7-22.2-23-22.2c-7,0-14,0-21,0c-1.5,0-1.7,0.5-1.7,1.8c0.1,7.9,0,15.7,0,23.6
	c0,8,0,15.9,0,23.9c0,1.1,0.2,1.5,1.4,1.5c7.8-0.1,15.7,0.2,23.5-0.2c8.5-0.4,14.8-4.5,18.4-12.4
	C156.5,275.7,156.8,270.3,156.6,264.9z M144.4,275c-1.7,5.7-5.8,8.8-12,9c-1.4,0-2.8,0-4.3,0c-1.6,0-3.2,0-4.8,0
	c-0.8,0-1.1-0.2-1.1-1c0-9.9,0-19.8,0-29.7c0-0.5-0.2-1.1,0.7-1c4.2,0.2,8.4-0.5,12.6,0.5c5.8,1.4,8.4,5.6,9.3,11.1
	C145.5,267.5,145.5,271.3,144.4,275z"/>
<path fill="#FDCE35" d="M299.4,152.8c-1.6,0.3-1.6-1-2.2-1.6c-0.4-0.4-0.5-1.2-1.2-0.9c-0.6,0.2-0.2,0.9-0.3,1.4
	c-0.1,0.4,0.4,1.2-0.5,1.2c-1,0-0.5-0.8-0.6-1.3c-0.1-1-0.1-2,0-3.1c0.1-0.6-0.6-1.8,0.5-1.8c1.3-0.1,2.9-0.6,4,0.8
	c0.4,0.5,0.5,1.4,0.1,1.7C297.2,150.5,298.7,151.5,299.4,152.8z M296.3,149.4c1-0.1,1.9-0.1,1.9-1.1c0-0.9-0.8-0.9-1.5-1
	c-0.8-0.1-1.1,0.2-1.1,1C295.6,149.2,295.8,149.5,296.3,149.4z"/>
</svg>
