<?xml version="1.0" encoding="utf-8"?>
<!-- Generator: Adobe Illustrator 18.1.1, SVG Export Plug-In . SVG Version: 6.00 Build 0)  -->
<svg version="1.1" id="Layer_1" xmlns="http://www.w3.org/2000/svg" xmlns:xlink="http://www.w3.org/1999/xlink" x="0px" y="0px"
	 viewBox="0 0 160.3 160.4" enable-background="new 0 0 160.3 160.4" xml:space="preserve">
<path fill="#FFFFFF" d="M80.2,160.3C36,160.3,0,124.4,0,80.2S36,0,80.2,0s80.2,36,80.2,80.2S124.4,160.3,80.2,160.3z M80.2,11
	C42,11,11,42,11,80.2s31,69.2,69.2,69.2s69.2-31,69.2-69.2S118.3,11,80.2,11z"/>
<path fill="#FFFFFF" d="M62.8,130.3c-1.9,0-3.8-0.7-5.3-2.2c-3-2.9-3-7.7-0.1-10.6l36.9-37.4L57.4,42.1c-2.9-3-2.8-7.7,0.2-10.6
	c3-2.9,7.7-2.8,10.6,0.2l42,43.3c2.8,2.9,2.8,7.6,0,10.5l-42,42.7C66.7,129.6,64.8,130.3,62.8,130.3z"/>
</svg>
